<?xml version="1.0" standalone="no"?>
<!DOCTYPE svg PUBLIC "-//W3C//DTD SVG 20010904//EN"
 "http://www.w3.org/TR/2001/REC-SVG-20010904/DTD/svg10.dtd">
<svg version="1.0" xmlns="http://www.w3.org/2000/svg"
 width="7500.000000pt" height="2500.000000pt" viewBox="0 0 7500.000000 2500.000000"
 preserveAspectRatio="xMidYMid meet">
<metadata>
Created by potrace 1.16, written by Peter Selinger 2001-2019
</metadata>
<g transform="translate(0.000000,2500.000000) scale(0.100000,-0.100000)"
fill="#000000" stroke="none">
<path d="M0 14740 l0 -10260 93 -1 92 -2 -92 -15 -93 -15 0 -564 c0 -310 3
-563 8 -563 4 0 45 7 92 15 53 9 149 15 256 15 l170 0 845 166 844 167 240 4
c132 3 237 2 233 -2 -4 -4 -366 -80 -805 -170 l-798 -163 250 -2 c138 -1 246
-3 240 -6 -5 -2 -224 -42 -485 -89 l-475 -85 -307 0 -308 0 0 -1585 0 -1585
37500 0 37500 0 0 1629 0 1628 -87 16 c-49 9 -158 29 -243 44 l-155 28 245 5
c135 3 241 7 235 8 -332 71 -2287 463 -2291 459 -3 -3 -19 -93 -34 -199 -32
-215 -66 -411 -111 -628 -26 -128 -52 -230 -155 -630 -14 -52 -29 -99 -34
-104 -4 -4 -262 -10 -572 -12 -539 -4 -1005 -12 -1853 -33 -868 -21 -3785 -44
-3799 -30 -4 4 5 71 18 150 86 496 161 1156 201 1753 8 120 16 220 17 221 2 2
323 6 713 10 391 4 715 8 721 10 7 2 -31 155 -102 416 -63 227 -115 414 -118
416 -2 2 -37 10 -79 17 -69 12 -77 11 -81 -3 -3 -9 -26 -113 -52 -233 l-48
-216 -110 -6 c-61 -3 -255 -7 -430 -8 l-319 -3 -71 280 -71 280 -111 3 -110 3
-18 115 c-10 63 -15 118 -12 122 15 14 688 47 1261 62 774 20 1773 7 2943 -38
94 -4 172 -4 172 1 0 13 -442 992 -454 1003 -25 26 -821 100 -1461 136 -303
17 -1586 17 -1895 0 -501 -27 -1084 -72 -1096 -84 -5 -6 150 -1047 165 -1104
l9 -31 -82 -13 c-44 -7 -87 -17 -93 -22 -9 -7 -14 -6 -17 3 -3 8 -34 273 -69
589 -58 517 -63 580 -52 627 14 62 16 61 -79 37 -146 -37 -136 -32 -125 -57 6
-13 7 -32 2 -45 -8 -21 -31 -29 -184 -69 -95 -25 -187 -47 -204 -49 -16 -2
-46 -10 -65 -19 -19 -8 -111 -38 -205 -65 -185 -56 -271 -94 -459 -206 l-123
-73 -60 -93 c-152 -234 -324 -562 -449 -853 -58 -136 -77 -171 -94 -173 -19
-3 -20 -8 -15 -65 10 -106 15 -129 28 -124 496 212 923 360 1267 438 30 6 62
16 70 20 33 18 750 179 796 179 8 0 13 -4 9 -9 -3 -6 4 -8 15 -6 l20 4 0
-1615 c0 -1564 -1 -1614 -19 -1614 -16 0 -19 13 -25 139 -28 562 -190 1366
-330 1637 -42 82 -51 94 -93 117 -71 39 -118 5 -153 -111 -56 -189 -75 -408
-75 -882 0 -416 10 -562 56 -795 10 -55 19 -101 19 -103 0 -6 -726 0 -870 8
-91 5 -289 14 -440 19 -151 6 -325 13 -387 17 l-112 6 -5 51 c-3 29 -13 120
-22 202 -48 456 -185 1038 -296 1259 -45 90 -64 112 -113 137 -53 27 -84 18
-114 -32 -110 -181 -149 -1091 -67 -1532 l13 -68 -146 7 c-80 4 -153 10 -163
15 -11 6 -25 45 -42 116 -53 224 -74 398 -83 675 l-6 197 35 43 35 43 12 156
c13 179 33 311 62 422 l21 77 107 101 c58 56 157 142 219 192 62 49 110 92
108 95 -3 2 -80 23 -173 47 l-168 43 140 1 c95 1 164 -4 216 -15 l76 -17 104
65 c188 117 167 108 266 108 72 0 103 5 154 25 l64 24 -80 -4 c-263 -17 -470
-24 -476 -18 -4 5 -17 53 -29 108 -37 173 -40 179 -35 75 3 -53 13 -126 24
-162 l18 -66 -21 -6 c-39 -11 -46 -6 -71 48 -35 76 -54 165 -61 276 l-5 95 59
45 59 45 164 -11 c90 -6 211 -15 269 -18 l105 -7 55 133 c111 272 304 641 455
874 l73 111 108 66 c403 242 887 438 1309 532 1103 244 2451 247 4035 9 230
-34 813 -134 819 -139 2 -3 -3 -24 -12 -47 l-17 -41 88 -140 c48 -77 195 -311
328 -521 l241 -381 69 -2 c473 -16 925 -62 1329 -136 l120 -22 11 -35 c6 -19
14 -50 17 -67 6 -30 4 -33 -18 -33 -27 0 -23 13 -50 -175 -18 -118 -46 -257
-71 -342 l-15 -53 -314 0 c-173 0 -315 3 -315 8 0 4 -11 113 -25 242 -14 129
-25 241 -25 248 0 9 -12 12 -37 10 -36 -3 -42 -8 -115 -118 -128 -191 -244
-428 -323 -662 l-33 -97 41 -5 c56 -7 1348 -37 1560 -36 l167 0 0 -25 c0 -14
-7 -89 -16 -167 -8 -77 -13 -142 -11 -145 3 -2 510 -103 1128 -223 618 -121
1132 -222 1142 -224 16 -4 17 514 17 10765 l0 10769 -37500 0 -37500 0 0
-10260z m40037 8150 l9073 0 0 -228 0 -228 30 -29 c17 -16 30 -34 30 -41 0 -7
9 -16 20 -19 11 -3 20 -12 20 -19 0 -6 17 -31 38 -54 57 -66 82 -99 82 -111 0
-5 9 -16 19 -23 11 -8 27 -33 37 -56 10 -23 22 -42 26 -42 5 0 8 -6 8 -14 0
-7 7 -19 15 -26 8 -7 15 -20 15 -29 0 -9 10 -36 22 -61 12 -25 20 -50 19 -57
-1 -6 3 -14 9 -18 6 -4 7 -23 3 -47 -4 -28 -3 -39 5 -34 14 8 14 -184 0 -201
-5 -7 -5 -13 1 -17 6 -4 10 -97 11 -234 2 -431 10 -1168 15 -1492 3 -179 7
-631 10 -1005 3 -374 8 -752 10 -840 3 -88 6 -245 6 -350 1 -130 5 -192 13
-197 8 -5 7 -11 -2 -20 -15 -15 -16 -55 0 -60 7 -3 9 -11 3 -24 -11 -25 -17
-96 -7 -90 4 2 8 -35 8 -82 1 -48 5 -276 10 -507 4 -231 8 -459 9 -508 0 -48
2 -87 5 -87 3 0 5 -233 5 -518 0 -334 4 -533 11 -563 6 -25 8 -71 4 -102 -3
-31 -3 -54 0 -52 3 2 6 -74 7 -168 0 -95 4 -230 6 -302 3 -71 9 -344 12 -605
5 -353 10 -487 21 -523 9 -32 9 -45 2 -41 -8 5 -9 -20 -4 -92 3 -54 9 -218 11
-364 3 -146 10 -355 15 -465 5 -110 12 -373 16 -585 4 -212 8 -405 9 -430 12
-256 5 -493 -16 -531 -7 -13 -11 -26 -10 -29 2 -5 -52 -122 -72 -155 -7 -11
-22 -33 -35 -49 -12 -15 -29 -44 -37 -62 -8 -19 -18 -34 -24 -34 -5 0 -17 -13
-28 -29 -10 -15 -40 -48 -68 -71 -27 -24 -50 -48 -50 -54 0 -6 -8 -18 -19 -26
-10 -8 -26 -23 -34 -32 -9 -10 -20 -18 -25 -18 -5 0 -21 -12 -37 -28 -37 -36
-57 -51 -108 -85 l-42 -27 0 -85 0 -85 -11610 0 -11610 0 0 141 0 141 -42 39
c-24 22 -46 39 -50 39 -5 0 -8 6 -8 13 0 7 -14 23 -30 35 -77 57 -148 136
-221 244 -43 65 -76 118 -73 118 3 0 -4 16 -16 35 -12 19 -18 35 -13 35 4 0 3
4 -3 8 -6 4 -17 34 -25 67 -16 63 -16 95 -3 480 4 127 6 276 5 333 -1 57 2
109 6 115 9 15 10 19 12 297 1 158 5 230 11 220 7 -11 9 -7 5 15 -12 82 -14
148 -6 164 6 11 7 47 2 90 -4 40 -4 74 -1 76 4 2 7 46 8 97 5 292 11 420 22
434 10 11 10 14 -1 14 -18 0 -19 110 -2 131 8 10 13 117 17 354 8 479 18 934
20 975 1 19 3 127 5 240 2 121 6 195 11 180 5 -14 8 62 9 180 1 113 4 365 7
560 6 377 6 489 -3 503 -2 4 0 13 5 20 12 14 23 401 22 739 -1 160 3 234 11
250 9 16 13 119 15 353 2 181 5 501 8 710 3 209 7 605 11 880 3 275 8 538 11
585 2 47 5 277 5 513 0 235 3 427 7 427 4 0 8 186 10 413 2 226 3 426 4 442 0
17 0 66 -1 110 -2 44 -2 85 -1 90 2 6 2 14 1 18 -1 4 4 18 11 30 7 12 11 26
10 31 -2 4 3 14 9 22 8 10 8 14 0 14 -15 0 -14 16 3 32 7 8 19 30 27 51 7 20
16 37 20 37 4 0 11 15 14 33 4 17 12 37 17 44 5 6 8 17 6 25 -3 15 32 78 44
78 4 0 8 6 8 14 0 8 7 16 15 20 8 3 15 12 15 20 0 9 9 20 20 26 11 6 18 15 15
21 -4 5 -1 9 4 9 8 0 11 100 11 315 l0 315 2448 3 c1346 2 2487 2 2536 0 49
-2 4172 -3 9163 -3z m12893 -13509 c256 -19 576 -50 787 -76 199 -26 535 -75
541 -80 7 -6 106 -277 152 -415 78 -235 195 -644 215 -750 l6 -36 77 8 c400
39 1013 62 1439 55 l331 -6 124 53 c195 85 352 131 558 165 492 82 786 105
1330 105 637 0 1049 -41 1642 -164 190 -39 554 -132 587 -149 14 -8 56 -101
45 -101 -2 0 -86 22 -187 49 -437 117 -863 190 -1377 238 -275 25 -1060 25
-1330 0 -449 -42 -805 -100 -985 -159 -66 -22 -126 -43 -133 -47 -8 -4 103
-16 245 -25 540 -37 1086 -110 1625 -219 l166 -34 -18 46 c-17 44 -105 261
-117 290 -12 26 755 3 1122 -34 240 -25 369 -45 381 -61 21 -26 121 -346 172
-549 81 -321 129 -599 165 -948 l13 -127 -141 0 -142 0 -32 126 c-18 69 -54
203 -81 297 -26 95 -56 205 -66 244 -10 40 -24 75 -32 78 -7 2 -11 1 -8 -4 4
-5 -18 -11 -48 -13 l-55 -3 -48 125 -48 124 -115 34 c-1883 544 -4048 650
-6014 293 -369 -67 -720 -198 -1231 -459 l-190 -97 -97 -190 c-412 -805 -716
-1559 -1009 -2505 -23 -74 -47 -140 -53 -146 -8 -8 -97 -5 -316 11 l-305 22
-53 -41 c-30 -23 -61 -46 -69 -53 -13 -10 -15 -31 -10 -135 3 -68 12 -147 20
-175 22 -76 1 -66 -36 17 l-31 71 -326 -3 -326 -3 22 40 c41 73 78 203 108
378 l7 37 244 0 245 0 6 -25 6 -25 51 42 c48 41 53 43 111 41 l61 -2 -3 111
c-3 75 2 142 13 207 25 139 104 359 124 347 12 -7 35 -80 53 -161 20 -93 17
-343 -5 -438 -10 -43 -17 -80 -15 -81 1 -2 80 -8 173 -13 118 -8 172 -8 177 0
3 5 13 41 23 78 52 215 278 877 416 1218 44 107 79 205 79 217 0 12 4 24 9 26
4 2 48 95 96 208 130 302 328 723 436 925 l94 176 258 127 258 127 -6 35 c-7
51 -10 67 -76 385 -33 160 -64 313 -69 340 -11 65 -120 522 -164 690 -19 71
-33 131 -31 134 4 4 1395 -76 1487 -85 47 -5 59 -10 64 -28 4 -11 31 -84 61
-160 66 -170 194 -555 254 -764 39 -139 45 -153 64 -148 11 2 72 10 135 17 63
6 116 13 118 14 12 10 -167 608 -258 860 -34 94 -64 178 -67 188 -6 20 -9 21
-173 47 -938 146 -1850 184 -2770 114 -362 -27 -445 -39 -538 -78 -262 -110
-617 -343 -823 -540 -62 -60 -69 -72 -129 -212 -186 -440 -384 -965 -545
-1449 -163 -486 -174 -527 -168 -613 6 -72 6 -73 32 -68 14 3 58 8 96 11 39 4
82 9 98 11 l27 4 0 -725 0 -725 -38 0 -38 0 -24 -75 c-13 -41 -21 -77 -19 -80
3 -2 29 12 58 31 29 20 55 33 59 30 3 -3 0 -6 -8 -6 -10 0 -10 -3 0 -15 11
-13 10 -15 -6 -9 -18 5 -18 5 -1 -6 9 -6 23 -8 30 -4 8 6 8 3 -1 -9 -8 -10
-12 -35 -11 -64 l3 -48 -105 -3 -106 -3 -6 178 c-10 267 -59 658 -94 746 -17
42 -65 87 -93 87 -41 0 -87 -74 -114 -182 -33 -137 -76 -568 -76 -769 l0 -80
-147 3 -147 3 -37 105 c-67 190 -89 268 -101 349 -10 70 -10 82 4 98 12 13 19
57 27 168 16 227 56 422 110 546 19 45 66 87 268 240 l91 69 70 0 c43 0 91 8
128 20 82 29 92 42 24 35 -91 -8 -502 -27 -506 -22 -15 14 -55 241 -60 337
l-7 115 299 -21 c164 -12 300 -22 302 -23 1 -1 2 -13 2 -28 1 -16 30 62 65
172 126 393 277 824 402 1145 24 63 56 144 69 180 32 81 106 259 191 460 58
134 74 163 122 213 171 179 547 429 841 559 l105 47 220 20 c190 17 301 25
640 45 130 7 1089 -3 1235 -13z m-18773 -148 c13 -33 14 -43 2 -78 -17 -47
-67 -85 -114 -85 -81 0 -142 90 -111 164 l15 36 96 0 96 0 16 -37z m-17379
-883 c496 -26 979 -71 1050 -99 349 -138 886 -485 1145 -739 l77 -77 92 -215
c157 -369 391 -961 504 -1273 l68 -189 70 6 c39 3 226 8 416 12 190 3 352 8
362 10 21 6 14 33 -48 187 -51 128 -111 243 -193 369 -48 75 -60 88 -83 88
-31 0 -31 0 -48 -175 -6 -60 -13 -129 -16 -153 l-6 -42 -231 2 -231 3 -8 30
c-15 53 -56 268 -63 328 -5 46 -10 57 -25 57 -16 0 -17 5 -8 43 5 23 12 45 16
49 16 17 341 67 592 93 85 9 236 18 336 22 l181 6 168 266 c93 146 202 318
242 382 70 110 73 117 62 148 -6 17 -10 34 -8 35 6 6 531 93 724 120 404 58
752 90 1145 107 760 33 1571 -59 2040 -231 264 -97 629 -279 694 -347 69 -71
272 -444 381 -698 26 -60 48 -111 49 -112 1 -2 89 4 196 11 l193 15 44 -36
c37 -31 43 -41 43 -74 l0 -39 68 0 c231 -1 777 -66 1137 -136 251 -49 578
-149 780 -239 17 -7 72 -32 123 -54 138 -61 324 -158 440 -230 97 -60 107 -69
161 -150 93 -139 232 -379 214 -368 -6 4 -23 28 -39 55 -15 26 -53 88 -85 138
-57 88 -62 92 -161 151 -412 245 -873 429 -1298 518 -746 156 -1641 199 -2582
125 -307 -24 -775 -76 -943 -105 -11 -1 -96 -15 -190 -29 -218 -34 -769 -127
-773 -131 -2 -2 3 -19 11 -38 l15 -35 -120 -188 c-66 -104 -208 -327 -316
-497 l-195 -307 -81 0 c-359 -1 -996 -73 -1311 -148 -33 -9 -34 -10 -90 -232
-61 -241 -115 -592 -115 -742 l0 -68 -124 0 c-69 0 -127 -3 -129 -7 -4 -9 14
-182 32 -303 6 -41 13 -104 16 -140 17 -202 122 -758 204 -1081 27 -107 48
-195 47 -196 0 -1 -13 1 -27 4 -25 5 -29 15 -74 181 -27 98 -54 181 -62 185
-7 5 -11 12 -9 16 3 4 -32 8 -77 9 -97 3 -149 11 -142 22 7 11 -20 20 -57 20
-27 0 -29 -2 -17 -17 11 -15 10 -15 -8 1 -22 19 -23 18 -34 -10 -6 -16 -12
-38 -12 -50 -1 -13 -10 -21 -24 -22 -12 -1 -28 -3 -35 -4 -9 -2 -13 9 -12 37
5 171 3 1338 -2 1347 -5 7 -2 8 7 3 11 -7 12 -6 3 6 -7 8 -11 41 -9 74 2 59 1
61 -41 101 -46 45 -263 221 -331 269 -24 17 -43 33 -43 36 0 6 167 1 215 -6
19 -3 69 -38 135 -92 95 -80 106 -94 129 -150 l24 -63 111 0 c61 0 141 -3 177
-6 l66 -7 7 99 c3 55 9 132 12 172 l7 72 -113 0 c-103 0 -112 1 -105 18 6 16
27 97 44 167 4 20 14 31 31 35 26 7 9 10 -133 25 -49 6 -57 9 -52 23 30 78 64
324 52 374 -4 13 -36 48 -72 77 l-67 53 -116 -4 -116 -3 -38 189 c-21 104 -36
192 -33 195 3 2 141 9 308 14 282 9 1033 -3 1228 -20 l67 -6 48 -153 49 -154
31 0 32 0 -24 113 c-33 153 -67 257 -83 257 -3 0 -78 7 -166 16 -216 21 -888
30 -1110 15 -318 -21 -449 -31 -453 -36 -7 -6 32 -197 67 -328 19 -73 24 -110
17 -112 -6 -2 -92 -9 -191 -15 -99 -6 -207 -13 -239 -17 l-59 -6 7 -140 c3
-78 4 -139 1 -136 -2 3 -43 127 -89 275 -253 805 -562 1645 -880 2389 -53 126
-58 133 -138 210 -213 207 -568 453 -878 609 -231 118 -272 131 -445 150 -934
99 -1981 106 -2915 20 -364 -33 -938 -106 -1212 -154 l-66 -12 -52 -136 c-237
-621 -447 -1414 -575 -2165 -65 -381 -98 -647 -150 -1193 l-6 -61 -181 -7
c-170 -6 -348 -22 -552 -48 l-89 -11 6 -306 c6 -384 36 -642 117 -1011 17 -74
30 -138 30 -141 0 -4 -40 -8 -90 -11 -49 -2 -91 -6 -93 -9 -18 -21 67 -577
109 -711 4 -14 0 -18 -19 -18 -30 0 -36 14 -77 170 -54 210 -86 401 -115 688
l-6 62 96 0 c52 0 95 1 95 3 0 2 -13 64 -29 138 -53 240 -111 629 -111 742 0
20 -3 37 -7 37 -5 0 -495 -122 -1090 -272 l-1083 -273 168 -5 c92 -3 164 -7
160 -8 -4 -1 -228 -56 -499 -122 l-492 -120 -625 0 c-355 0 -622 4 -616 9 5 4
244 61 531 125 l522 116 155 0 156 0 1338 320 c735 177 1345 323 1355 326 15
5 17 24 17 224 0 120 4 221 8 224 26 16 420 55 638 63 l181 6 12 96 c6 53 20
184 31 291 110 1059 344 2075 692 3006 l60 161 71 11 c812 120 1230 165 1787
192 124 6 297 15 385 20 189 10 873 4 1153 -10z m-8483 -254 c320 -32 640 -82
775 -123 108 -32 233 -84 431 -180 l157 -75 115 -237 c125 -255 198 -422 287
-656 60 -157 200 -577 200 -600 0 -8 5 -17 10 -20 6 -4 85 -1 175 5 l164 12
30 -23 c28 -23 30 -28 30 -95 1 -74 -29 -197 -51 -210 -8 -5 -9 -1 -4 12 4 10
10 53 13 94 l5 75 -36 28 -35 27 -133 -10 c-73 -5 -149 -10 -169 -10 l-36 0
-22 73 c-138 450 -295 845 -497 1253 l-95 191 -177 86 c-328 160 -456 197
-882 256 -515 72 -1152 81 -1690 26 -426 -45 -878 -132 -1242 -241 -14 -4 -16
-1 -8 23 4 15 11 35 15 45 4 11 53 29 153 57 407 113 912 198 1372 230 198 14
957 5 1145 -13z m7497 -217 c-27 -101 -73 -283 -101 -404 -65 -274 -60 -258
-77 -251 -9 3 -12 1 -9 -4 4 -6 -12 -10 -39 -10 -25 0 -46 5 -46 10 0 11 -37
13 -92 4 -21 -4 -35 -10 -32 -15 3 -5 -4 -9 -16 -9 -12 0 -24 9 -30 23 -5 12
-9 16 -9 10 -1 -15 -31 -18 -31 -3 0 6 -9 10 -20 10 -11 0 -20 -5 -20 -11 0
-6 7 -9 15 -5 8 3 15 1 15 -4 0 -17 -28 -11 -39 8 -10 16 -10 16 -11 -1 0 -10
-5 -15 -10 -12 -6 4 -8 11 -5 16 3 5 -2 6 -11 2 -12 -4 -15 -3 -10 5 11 17 -9
15 -24 -3 -11 -13 -10 -14 5 -9 13 5 16 4 11 -4 -5 -8 -1 -10 10 -5 11 4 15 2
11 -4 -4 -6 72 -45 178 -93 142 -64 184 -87 181 -99 -7 -24 -101 -467 -128
-605 -16 -81 -28 -121 -38 -124 -12 -4 -13 -2 -3 10 11 13 -14 16 -210 27
-122 6 -244 14 -272 17 -42 4 -47 3 -30 -7 12 -8 53 -12 114 -10 54 1 97 -2
100 -8 4 -5 66 -11 141 -13 119 -3 135 -5 134 -20 -1 -11 4 -15 15 -11 13 5
14 3 4 -7 -7 -8 -28 -15 -45 -16 -18 -1 -27 0 -20 3 38 14 -2 23 -108 23 -77
0 -120 4 -120 11 0 6 -32 9 -87 9 -49 -1 -101 3 -117 9 -17 7 -32 8 -35 3 -8
-12 -230 -24 -281 -16 -40 7 -55 23 -22 25 12 0 10 3 -8 10 -14 6 -42 9 -62 7
-21 -2 -38 -3 -38 -3 -3 2 -14 115 -31 320 -11 138 -27 331 -35 430 -9 99 -16
186 -17 193 0 15 -3 15 -28 2 -11 -6 -19 -7 -19 -1 0 5 -16 5 -41 0 -22 -5
-48 -8 -57 -7 -10 2 -17 -4 -17 -12 1 -68 18 -516 26 -684 7 -167 7 -211 -3
-218 -8 -4 -8 -8 -2 -8 6 0 11 -6 11 -13 0 -13 -16 -12 -277 13 -58 5 -168 10
-243 10 -91 0 -137 4 -137 11 0 7 -29 9 -85 7 -47 -2 -85 0 -85 5 0 4 -3 6 -7
6 -34 -5 -69 14 -58 31 6 9 9 9 15 0 6 -10 38 -13 114 -11 60 1 106 -2 106 -8
0 -5 81 -12 183 -15 100 -3 245 -9 322 -12 77 -3 137 -3 133 1 -7 7 -124 15
-581 39 -148 8 -273 18 -279 24 -11 11 22 139 132 507 105 350 325 973 354
1001 11 12 97 17 1251 85 286 16 565 33 620 37 55 4 101 4 103 1 1 -4 -19 -89
-46 -190z m-8308 -21 c-3 -13 -14 -39 -24 -58 -52 -104 -258 -687 -320 -906
-19 -69 -26 -81 -41 -77 -11 3 -19 0 -19 -6 0 -7 4 -9 10 -6 6 3 7 -1 4 -9 -9
-24 -24 -19 -24 8 0 14 -5 28 -11 32 -9 5 -10 -2 -6 -22 6 -26 5 -27 -4 -7 -8
15 -23 22 -50 25 -21 2 -40 0 -41 -3 -2 -4 -38 -10 -80 -14 -68 -6 -78 -5 -78
9 0 12 11 16 48 17 37 1 29 4 -37 12 -55 6 -86 6 -90 -1 -10 -15 -90 -20 -84
-5 3 7 19 14 37 14 17 1 -14 7 -69 15 -128 17 -125 17 -125 -1 0 -11 11 -15
40 -15 23 0 40 -5 40 -11 0 -7 -9 -9 -22 -5 -13 3 -33 6 -45 6 -14 0 -23 6
-23 16 0 14 -2 14 -15 0 -9 -8 -22 -13 -29 -10 -20 8 -20 9 65 448 13 66 16
103 9 111 -5 6 -7 14 -4 17 3 3 -16 3 -42 0 -33 -3 -49 -1 -54 9 -14 21 -15
17 -133 -411 -35 -127 -43 -144 -62 -136 -8 3 -16 0 -19 -7 -2 -7 -5 -4 -5 6
-1 14 4 17 18 12 11 -3 22 -2 24 3 3 4 -6 7 -21 7 -15 -1 -31 1 -37 4 -9 6
-187 30 -227 32 -23 0 -24 -1 17 179 59 259 169 638 193 662 10 9 188 35 377
53 222 22 438 32 723 34 l243 1 -7 -22z m37296 -118 c424 -29 808 -76 1290
-156 184 -30 338 -58 342 -60 4 -3 4 -14 -2 -24 -5 -10 -10 -27 -9 -37 0 -10
69 -126 154 -258 85 -132 194 -302 242 -377 l88 -138 100 0 c118 0 327 -15
515 -36 174 -20 481 -70 490 -81 12 -13 78 -286 99 -413 18 -102 41 -316 41
-377 0 -21 4 -22 98 -25 l98 -3 -18 -160 c-37 -337 -94 -669 -163 -961 -19
-80 -35 -147 -35 -149 0 -3 149 -5 330 -5 l330 0 0 -27 c2 -104 32 -286 61
-370 9 -28 15 -54 12 -57 -7 -7 -1193 -8 -1193 -2 0 2 13 32 29 66 16 33 37
89 46 124 l17 63 67 7 c36 3 96 6 134 6 37 0 67 1 67 3 0 2 18 75 40 162 73
289 137 650 174 975 9 74 16 147 16 163 l0 27 -94 0 -94 0 -6 93 c-11 153 -35
326 -62 447 -14 63 -28 117 -30 119 -5 5 -9 -9 -34 -121 l-21 -98 -233 0 -232
0 -17 168 c-10 92 -17 176 -17 188 0 20 7 22 128 28 70 5 156 11 192 15 l65 6
-112 18 c-237 38 -535 66 -702 68 -48 0 -105 4 -128 7 l-42 7 -245 384 c-219
345 -243 387 -233 408 5 13 7 26 4 29 -18 18 -732 129 -1087 168 -441 50 -627
60 -1080 60 -455 0 -621 -10 -965 -59 -491 -69 -776 -155 -1165 -352 -261
-132 -279 -146 -359 -275 -36 -58 -68 -105 -70 -103 -6 6 84 165 148 263 70
107 92 123 326 243 285 147 564 247 850 304 298 60 606 97 940 115 196 10 703
4 915 -10z m12500 -121 c533 -22 963 -60 1351 -120 l136 -21 56 -162 c98 -280
182 -569 256 -876 47 -198 108 -481 115 -532 2 -21 7 -42 11 -48 3 -5 3 -19 0
-30 -5 -15 -15 -20 -45 -20 -21 0 -40 5 -42 11 -2 7 -17 7 -48 0 -25 -6 -96
-14 -157 -18 -62 -3 -113 -10 -113 -15 0 -4 -35 -8 -78 -8 -46 0 -83 -5 -90
-12 -9 -9 -12 -8 -16 3 -16 55 -44 156 -101 369 -145 547 -172 640 -179 633
-4 -4 -5 5 -2 21 4 23 3 26 -9 16 -10 -8 -40 -10 -92 -7 l-78 6 85 -13 85 -14
-115 5 c-63 3 -120 6 -127 8 -15 5 -30 93 133 -740 25 -126 48 -239 51 -249 4
-14 1 -18 -10 -13 -10 4 -14 1 -11 -6 3 -8 -13 -12 -53 -13 -32 0 -137 -9
-233 -20 l-175 -19 104 -3 c57 -1 107 1 110 5 3 4 24 8 46 8 22 1 74 4 116 9
72 8 76 7 82 -13 5 -20 2 -21 -79 -21 -49 0 -84 -4 -84 -10 0 -6 -26 -10 -59
-10 -32 0 -87 -3 -122 -7 l-64 -8 45 -5 c25 -3 -27 -6 -114 -7 -110 -1 -162
-6 -167 -14 -4 -8 -51 -13 -140 -15 -74 -2 -152 -5 -174 -8 -22 -3 -87 -1
-145 3 l-105 8 123 2 c74 0 122 5 122 11 0 6 33 10 80 10 47 0 80 4 80 10 0 6
18 10 40 10 22 0 40 -4 40 -10 0 -5 18 -10 40 -10 65 0 46 17 -28 24 -62 6
-220 -7 -517 -43 -38 -5 -71 -8 -72 -7 -2 2 -28 88 -58 192 -150 511 -456
1367 -614 1717 -17 38 -31 74 -31 79 0 12 637 4 1040 -13z m-12325 -109 c317
-11 724 -39 745 -50 8 -5 35 -46 59 -92 24 -45 53 -96 63 -111 28 -39 178
-397 178 -423 0 -1 -11 -1 -25 1 -14 1 -28 -1 -31 -6 -2 -5 -28 -8 -57 -8 -29
0 -108 -5 -177 -10 -69 -6 -197 -11 -286 -11 l-161 0 -56 143 c-50 127 -58
142 -79 140 -74 -5 -98 -7 -98 -8 0 -7 78 -191 96 -227 l24 -48 -209 0 -209 0
-58 103 c-122 217 -237 381 -382 545 l-64 72 229 0 c125 0 350 -5 498 -10z
m23115 -870 c397 -13 1016 -50 1086 -65 11 -2 26 -15 32 -27 7 -13 30 -54 52
-93 101 -176 174 -322 233 -470 73 -182 101 -264 94 -271 -3 -3 -41 -8 -84
-10 -43 -2 -170 -11 -283 -18 -113 -8 -300 -18 -415 -22 l-211 -7 -78 206 -79
205 -41 -5 c-22 -3 -53 -11 -68 -18 -23 -11 -26 -11 -21 2 5 13 2 13 -15 4
-20 -11 -20 -12 15 -98 19 -49 55 -132 80 -186 25 -54 43 -99 41 -100 -1 -2
-130 -1 -286 1 l-283 4 -39 78 c-132 263 -370 607 -564 817 -36 39 -66 74 -66
77 0 9 561 7 900 -4z m-23965 -160 c194 -19 303 -33 314 -40 9 -5 1 -53 -25
-172 l-37 -165 -309 -8 c-171 -4 -313 -3 -318 1 -7 9 -100 374 -100 395 0 14
294 6 475 -11z m1823 -56 c288 -8 268 2 226 -105 l-26 -67 -192 -7 c-105 -4
-226 -5 -270 -3 l-78 3 -18 45 c-10 25 -28 69 -39 99 l-22 53 83 -6 c46 -3
197 -9 336 -12z m15397 -350 l7 -50 -220 -53 c-122 -29 -225 -58 -230 -64 -5
-7 -28 -60 -51 -119 l-43 -106 -81 -7 c-45 -4 -111 -5 -147 -3 l-65 3 -3 70
c-4 86 7 247 18 264 5 9 131 32 351 66 189 30 367 57 394 62 58 11 61 8 70
-63z m-35126 -181 c-64 -67 -138 -154 -198 -235 -35 -46 -49 -58 -80 -63 -20
-3 -50 -1 -66 5 -17 6 -57 15 -90 19 -33 5 -69 12 -79 16 -13 6 -17 5 -13 -2
4 -7 -18 -5 -61 4 -77 16 -128 24 -159 26 -11 1 -19 6 -16 11 3 5 -9 6 -28 2
-19 -3 -50 -1 -69 5 -35 11 -53 14 -140 24 -25 3 -54 6 -65 8 -11 2 -42 7 -70
11 -27 4 -61 13 -74 19 -19 10 -25 9 -29 -2 -3 -10 -6 -11 -12 -1 -8 12 -33
17 -160 26 -35 2 -67 9 -70 15 -4 6 -18 7 -33 3 -17 -4 -27 -2 -27 5 0 6 -11
11 -25 11 -14 0 -44 4 -67 10 -51 11 -186 31 -210 31 -14 0 -15 4 -6 19 13 21
34 24 318 44 396 30 719 41 1220 44 l364 2 -55 -57z m14867 -48 c-126 -79
-235 -163 -375 -289 -41 -37 -76 -65 -78 -62 -2 2 -1 20 2 40 6 28 27 55 103
127 53 51 141 125 196 165 l100 74 70 0 70 0 -88 -55z m-30360 -155 c77 -65
146 -125 152 -133 30 -36 65 -516 57 -787 -2 -69 -4 -158 -5 -197 0 -71 -1
-73 -25 -73 l-25 0 6 193 c6 188 -4 439 -27 648 l-11 104 -57 55 c-32 30 -115
102 -187 159 -71 56 -145 116 -164 132 l-35 29 90 -6 90 -6 141 -118z m14387
-217 c-26 -65 -47 -119 -48 -121 -1 -1 -42 4 -91 13 -177 31 -227 36 -235 24
-5 -8 -17 -9 -45 -1 l-39 10 35 2 35 2 -40 9 c-22 5 -71 7 -110 5 -43 -2 -54
-1 -30 3 33 5 9 11 -135 34 -96 15 -184 30 -195 32 -10 2 -27 -3 -37 -12 -11
-10 -18 -12 -18 -5 0 7 5 12 12 12 6 0 9 3 5 6 -3 4 5 28 19 55 l24 49 469 0
469 0 -45 -117z m577 91 c129 -8 239 -16 243 -17 4 -1 -16 -36 -45 -77 -29
-41 -75 -113 -103 -159 -54 -89 -68 -98 -121 -81 -26 9 -25 9 9 4 59 -8 36 13
-26 25 -28 5 -115 19 -192 31 -77 12 -155 24 -173 27 -27 4 -31 3 -26 -11 4
-12 2 -15 -9 -10 -18 7 -20 0 33 162 l43 134 66 -6 c36 -3 172 -13 301 -22z
m17163 -629 c18 -102 22 -158 22 -370 0 -206 -3 -256 -16 -285 l-15 -35 -22
105 c-49 236 -55 506 -15 720 6 33 6 34 15 10 5 -14 19 -79 31 -145z m-1762
-50 c30 -143 45 -384 32 -506 -6 -57 -17 -117 -23 -134 -12 -30 -13 -29 -36
55 -14 47 -36 141 -50 210 -22 108 -25 143 -22 260 4 108 10 149 28 204 l24
70 14 -35 c8 -19 23 -74 33 -124z m7899 30 c10 -90 10 -150 1 -268 -17 -225
-26 -241 -36 -62 -10 189 -9 292 6 378 6 37 12 67 14 67 1 0 8 -52 15 -115z
m-24414 -482 l-53 -128 -194 4 c-107 2 -261 6 -342 10 l-149 6 -32 80 c-52
128 -52 123 8 130 49 5 501 20 713 23 l102 2 -53 -127z m16017 -34 c22 -95 27
-99 150 -99 45 0 87 -4 93 -8 6 -4 21 -42 33 -85 12 -43 32 -100 46 -127 14
-27 25 -52 25 -55 0 -2 -143 -6 -317 -7 l-318 -3 1450 -183 1450 -183 2850 15
c2912 16 3869 21 4055 20 67 0 134 -7 186 -19 l81 -19 59 47 59 46 160 7 160
7 -151 -116 c-160 -124 -416 -334 -575 -475 l-97 -84 -16 -122 c-53 -397 -70
-737 -63 -1263 l5 -413 -38 0 -37 0 -7 118 c-3 64 -9 176 -12 247 l-6 130
-457 -2 c-251 -1 -525 -7 -610 -12 -85 -6 -195 -12 -245 -13 -70 -1 -81 -2
-46 -7 25 -4 -47 -6 -160 -5 -121 2 -187 -1 -160 -5 36 -6 26 -8 -50 -8 -204
0 -713 -18 -670 -24 44 -6 44 -6 -16 -7 -34 -1 -89 -5 -123 -8 -41 -5 -61 -3
-61 4 0 6 19 13 43 15 23 2 5 4 -40 5 -65 2 -83 -1 -83 -12 0 -9 -18 -16 -52
-20 -29 -4 -435 -9 -903 -12 -467 -2 -950 -8 -1073 -14 -123 -5 -258 -9 -300
-8 l-77 2 85 6 c66 5 49 6 -80 6 -91 0 -146 -1 -122 -3 23 -2 42 -8 42 -14 0
-5 -56 -9 -132 -8 -73 0 -127 3 -120 6 26 10 10 23 -28 23 -34 0 -40 -3 -40
-21 0 -19 -4 -20 -142 -17 -79 2 -152 7 -162 12 -16 8 -18 7 -12 -9 6 -18 -7
-18 -356 -11 -200 3 -417 8 -483 10 -114 4 -116 4 -30 -4 50 -4 162 -9 250
-10 l160 -3 -245 -9 c-135 -5 -328 -6 -430 -3 -326 9 -556 13 -512 8 106 -11
16 -21 -305 -34 -192 -8 -568 -14 -838 -14 -269 0 -418 -2 -330 -5 88 -3
-1120 -5 -2685 -5 -1565 0 -2826 1 -2802 3 23 2 42 7 42 12 0 5 17 10 38 13
20 2 -15 1 -78 -1 -63 -3 -118 -10 -122 -15 -6 -10 -99 -9 -1488 24 -206 5
-532 12 -725 16 -324 7 -338 8 -190 14 88 3 15 4 -163 2 -304 -5 -322 -4 -315
13 5 14 3 16 -13 8 -24 -11 -304 -18 -304 -7 0 4 -111 9 -247 10 -135 1 -332
7 -437 13 -105 5 -317 10 -470 10 -254 0 -280 2 -292 18 -13 16 -14 16 -7 -3
6 -18 5 -19 -12 -5 -11 9 -16 10 -11 3 4 -7 2 -13 -3 -13 -14 0 -14 1 14 126
4 20 13 22 154 29 l149 7 21 76 c49 181 79 412 88 669 l6 182 -36 47 c-33 42
-37 54 -37 105 0 111 -24 308 -50 409 -18 68 -360 349 -612 502 -48 29 -87 56
-88 59 0 4 39 4 88 2 l87 -5 -40 29 c-22 16 -75 51 -117 78 -43 26 -77 50 -75
51 1 2 63 -1 137 -5 75 -4 140 -4 147 1 33 25 83 226 83 335 0 48 -3 53 -42
87 l-43 36 5060 0 5060 0 18 -81z m-27463 -207 c28 -96 72 -294 66 -299 -4 -5
-657 26 -663 31 -6 5 -22 301 -17 306 3 3 126 10 272 16 147 6 279 12 294 12
25 2 29 -3 48 -66z m33406 -7 c7 -38 19 -90 28 -114 9 -24 16 -45 16 -47 0 -2
-682 -4 -1516 -4 l-1516 0 25 43 c13 23 34 69 47 103 l22 61 231 6 c128 4 446
8 707 8 261 1 680 5 930 9 250 3 581 6 734 6 l280 -1 12 -70z m-4002 47 l90
-7 16 -55 c9 -30 26 -74 38 -97 12 -23 22 -45 22 -48 0 -3 -202 -5 -449 -5
l-450 0 40 84 c21 46 42 97 45 113 l6 28 276 -3 c152 -2 317 -7 366 -10z
m-26705 -47 c128 -7 234 -15 236 -17 3 -3 -23 -123 -46 -209 l-9 -36 -213 -7
c-116 -4 -236 -9 -266 -13 l-54 -6 7 43 c4 23 22 91 42 151 26 82 39 109 52
109 9 0 122 -7 251 -15z m49445 -1038 c53 -313 59 -725 15 -902 -6 -25 -15
-45 -19 -45 -9 0 -42 138 -67 285 -31 181 -23 672 14 850 5 28 7 25 24 -33 10
-35 25 -105 33 -155z m-2420 11 c53 -183 86 -558 67 -773 -12 -135 -36 -244
-51 -229 -11 12 -106 402 -121 499 -7 44 -13 143 -13 220 0 146 13 222 56 338
l21 59 12 -29 c7 -16 20 -55 29 -85z m-33548 -1453 l11 -40 -86 4 c-47 2 -88
6 -91 10 -3 4 -75 8 -160 9 -96 1 -156 5 -158 12 -5 13 -101 13 -218 -2 -76
-9 -97 -9 -103 1 -6 9 -27 11 -70 8 -60 -4 -84 4 -59 19 19 12 92 12 101 0 6
-8 10 -7 14 2 2 6 15 12 28 12 13 0 26 -6 29 -12 5 -10 7 -10 12 0 4 9 41 12
135 12 84 0 128 -4 124 -10 -3 -5 -1 -10 4 -10 6 0 11 4 11 10 0 10 115 15
335 15 l129 0 12 -40z"/>
<path d="M48493 6473 c7 -114 27 -217 46 -236 7 -7 93 -12 246 -15 207 -4 235
-3 241 11 7 20 -22 298 -33 308 -4 4 -114 12 -243 19 -129 6 -241 13 -249 16
-12 4 -13 -13 -8 -103z"/>
<path d="M22415 7539 c-329 -15 -1022 -73 -1110 -94 -15 -3 -58 -89 -186 -372
-91 -202 -163 -371 -160 -374 3 -4 94 -3 201 1 771 32 2095 38 2560 11 91 -5
224 -13 297 -17 72 -3 136 -10 142 -13 8 -5 7 -30 -1 -89 l-12 -82 -82 0 -82
0 -52 -211 -53 -211 -311 7 c-171 4 -314 10 -317 14 -3 3 -20 74 -38 156 -18
83 -34 157 -37 166 -4 13 -13 15 -56 8 -28 -5 -55 -12 -60 -17 -8 -8 -168
-577 -168 -599 0 -10 61 -13 274 -13 l274 0 20 32 c19 30 19 34 5 70 -9 21
-14 41 -11 43 5 5 570 102 642 110 47 5 144 20 326 51 47 8 95 15 106 15 12
-1 27 6 34 14 7 8 9 15 5 15 -4 0 -1 8 6 18 12 15 11 15 -8 -1 -16 -14 -23
-15 -29 -6 -4 7 -3 10 3 6 6 -4 14 0 17 9 10 26 7 422 -3 429 -5 3 -33 10 -62
15 -29 6 -53 11 -54 13 -1 1 26 187 61 412 35 226 60 413 56 417 -14 14 -513
52 -902 68 -270 11 -970 11 -1235 -1z m933 -48 c-13 -15 -55 -66 -94 -112 -40
-46 -97 -119 -128 -163 -60 -83 -202 -316 -232 -378 l-18 -38 -208 0 -208 0
16 38 c56 126 94 226 87 233 -4 4 -30 10 -58 14 l-50 6 -56 -143 -55 -143
-115 -3 c-91 -3 -453 12 -544 23 -11 1 -33 3 -49 4 -25 1 -28 4 -21 28 17 69
122 318 170 403 29 52 63 113 75 135 40 74 31 71 297 90 310 21 588 31 936 33
l278 2 -23 -29z"/>
<path d="M24656 7517 c11 -44 10 -56 -41 -504 -25 -216 -45 -394 -45 -395 0
-2 13 -4 28 -5 42 -3 345 -69 475 -104 61 -16 148 -38 192 -49 108 -25 346
-100 513 -160 l136 -50 128 0 c123 0 128 1 128 21 0 14 -5 19 -14 16 -10 -4
-25 21 -52 86 -63 154 -157 345 -239 487 -118 205 -150 248 -224 292 -121 74
-237 127 -361 164 -69 20 -129 40 -135 44 -5 5 -35 13 -65 19 -30 6 -102 23
-160 38 -104 28 -105 28 -105 58 0 27 -5 32 -50 46 -27 9 -65 19 -83 23 -34 6
-34 6 -26 -27z"/>
<path d="M26445 6305 c-5 -2 -63 -7 -127 -10 -107 -6 -118 -9 -118 -26 0 -18
10 -19 185 -19 177 0 185 1 185 20 0 10 -9 24 -19 30 -19 9 -84 13 -106 5z"/>
<path d="M21255 5829 c-222 -9 -638 -40 -645 -47 -7 -7 1935 9 2080 17 l115 6
-130 8 c-450 27 -1019 33 -1420 16z"/>
<path d="M38433 1883 c-88 -17 -4 -93 102 -93 41 0 142 27 167 44 20 14 20 15
-13 35 -29 18 -49 21 -134 20 -55 -1 -110 -4 -122 -6z"/>
<path d="M62822 4982 c-23 -18 -23 -21 -13 -93 5 -41 15 -97 21 -125 l11 -51
82 -6 c45 -4 153 -7 240 -7 135 0 159 2 164 16 3 9 0 69 -7 135 l-13 119 -31
4 c-42 7 -341 26 -391 26 -23 0 -50 -8 -63 -18z"/>
<path d="M64760 4880 c-36 -10 -193 -52 -348 -92 -178 -46 -287 -79 -292 -88
-4 -8 -10 -78 -13 -155 l-6 -140 47 93 c25 50 53 94 62 97 46 14 524 95 536
91 8 -3 13 -9 12 -13 -1 -7 10 -72 18 -105 1 -5 2 -18 3 -30 2 -23 2 -23 11
-2 4 11 11 43 14 70 3 27 15 103 26 169 11 66 20 121 20 123 0 5 -28 -1 -90
-18z"/>
<path d="M68720 4354 c-267 -11 -730 -37 -760 -43 -54 -11 624 -21 1860 -25
664 -3 1094 -1 1050 4 -88 10 -441 36 -695 51 -173 10 -1281 20 -1455 13z"/>
<path d="M63076 3715 c132 -294 219 -565 273 -847 24 -126 51 -334 51 -395 l0
-43 625 0 c344 0 625 3 624 8 0 4 -10 34 -22 67 l-22 60 -275 7 c-351 8 -753
50 -772 81 -4 7 -8 20 -8 31 0 34 -51 249 -82 346 -81 253 -242 551 -398 730
l-30 35 36 -80z"/>
<path d="M69395 3579 c-167 -8 -526 -34 -615 -45 -42 -6 -47 -9 -62 -47 -46
-113 -124 -480 -158 -741 -12 -87 -20 -160 -18 -161 2 -2 65 191 141 428 76
237 139 432 140 433 1 1 119 8 262 15 352 19 1898 20 1916 2 10 -10 -7 -108
-79 -465 -51 -249 -92 -457 -92 -463 2 -39 132 338 184 535 32 122 96 418 96
446 0 8 -33 14 -92 18 -51 4 -174 13 -273 21 -422 34 -937 43 -1350 24z"/>
</g>
</svg>
